<?xml version="1.0" encoding="UTF-8" standalone="no"?>
<!-- Generator: Gravit.io -->
<svg xmlns="http://www.w3.org/2000/svg" xmlns:xlink="http://www.w3.org/1999/xlink" style="isolation:isolate" viewBox="0 0 512 512" width="512" height="512"><defs><clipPath id="_clipPath_t3aYD3loIYVY5GxxBiUMYLeKuAVgdFd2"><rect width="512" height="512"/></clipPath></defs><g clip-path="url(#_clipPath_t3aYD3loIYVY5GxxBiUMYLeKuAVgdFd2)"><rect width="512" height="512" style="fill:rgb(255,102,0)"/><g style="isolation:isolate" id="Layer 0"/><g id="noun_46916"><path d=" M 457.361 201.167 C 429.885 204.527 363.69 237.656 358.571 240.236 C 282.953 220.226 231.981 222.658 186.374 229.123 C 175.485 230.666 160.348 211.562 113.817 200.395 C 126.429 198.008 134.186 196.846 161.595 191.108 C 168.226 189.721 189.551 169.716 204.59 169.926 C 219.015 170.128 236.418 194.684 250.336 205.084 C 261.664 213.559 273.101 195.922 267.277 192.377 C 242.031 177.002 218.947 160.532 205.434 160.182 C 148.862 158.737 103.628 179.959 64.321 193.356 C 63.598 193.311 62.89 193.261 62.158 193.221 C 59.749 193.086 54.239 194.872 52.602 197.151 C 51.269 197.636 51.215 198.246 52.086 198.905 C 51.628 204.882 51.022 214.196 53.58 218.319 C 72.428 248.711 60.781 308.011 121.355 319.663 C 180.596 331.054 173.372 250.367 179.384 251.888 C 183.97 253.05 189.493 255.962 191.139 260.888 C 202.046 293.533 208.525 345.815 274.478 351.006 C 314.597 354.165 332.283 352.693 349.983 278.682 C 352.316 268.941 352.316 276.142 364.915 265.02 C 365.296 264.684 365.637 264.235 365.951 263.701 C 375.88 259.941 412.006 246.338 438.616 237.378 C 441.286 236.481 451.959 218 451.959 218 C 451.959 218 451.659 232.968 450.69 243.094 C 450.371 246.437 456.881 245.642 457.357 243.094 C 459.25 233.062 463.355 200.435 457.361 201.167 Z  M 146.139 306.535 C 132.194 314.189 94.668 300.096 85.565 287.049 C 70.423 265.339 70.364 212.289 77.52 211.652 C 97.136 209.907 137.776 220.544 152.496 235.794 C 164.821 248.572 161.703 297.988 146.139 306.535 Z  M 308.787 336.182 C 290.917 347.614 242.713 334.065 226.193 316.697 C 213.16 302.99 199.085 245.961 216.026 241.726 C 241.147 235.449 298.62 240.878 318.537 256.554 C 334.289 268.959 334.63 319.667 308.787 336.182 Z " fill="rgb(255,255,255)"/></g></g></svg>